/* XPM */
static char * bottom_right_inactive_xpm[] = {
"24 4 3 1",
" 	c None",
".	c #000000",
"+	c #A00000",
".......................+",
".......................+",
".......................+",
"++++++++++++++++++++++++"};
