/* XPM */
static char * bottom_left_inactive_xpm[] = {
"24 4 3 1",
" 	c None",
".	c #A00000",
"+	c #000000",
".+++++++++++++++++++++++",
".+++++++++++++++++++++++",
".+++++++++++++++++++++++",
"........................"};
