/* XPM */
static char * hide_active_xpm[] = {
"13 19 3 1",
" 	c None",
".	c #000000",
"+	c #A00000",
"             ",
"             ",
"             ",
"             ",
"   .......   ",
"   .......   ",
"   .......   ",
"   .+++++.   ",
"   .......   ",
"   .......   ",
"   .......   ",
"             ",
"             ",
"             ",
"             ",
"             ",
"             ",
"             ",
"             "};
