/* XPM */
static char * left_inactive_xpm[] = {
"3 32 3 1",
" 	c None",
".	c #A00000",
"+	c #000000",
".++",
".++",
".++",
".++",
".++",
".++",
".++",
".++",
".++",
".++",
".++",
".++",
".++",
".++",
".++",
".++",
".++",
".++",
".++",
".++",
".++",
".++",
".++",
".++",
".++",
".++",
".++",
".++",
".++",
".++",
".++",
".++"};
