/* XPM */
static char * left_active_xpm[] = {
"3 32 3 1",
" 	c None",
".	c #CB0000",
"+	c #000000",
".++",
".++",
".++",
".++",
".++",
".++",
".++",
".++",
".++",
".++",
".++",
".++",
".++",
".++",
".++",
".++",
".++",
".++",
".++",
".++",
".++",
".++",
".++",
".++",
".++",
".++",
".++",
".++",
".++",
".++",
".++",
".++"};
