/* XPM */
static char * right_active_xpm[] = {
"3 32 3 1",
" 	c None",
".	c #000000",
"+	c #CB0000",
"..+",
"..+",
"..+",
"..+",
"..+",
"..+",
"..+",
"..+",
"..+",
"..+",
"..+",
"..+",
"..+",
"..+",
"..+",
"..+",
"..+",
"..+",
"..+",
"..+",
"..+",
"..+",
"..+",
"..+",
"..+",
"..+",
"..+",
"..+",
"..+",
"..+",
"..+",
"..+"};
