/* XPM */
static char * right_inactive_xpm[] = {
"3 32 3 1",
" 	c None",
".	c #000000",
"+	c #A00000",
"..+",
"..+",
"..+",
"..+",
"..+",
"..+",
"..+",
"..+",
"..+",
"..+",
"..+",
"..+",
"..+",
"..+",
"..+",
"..+",
"..+",
"..+",
"..+",
"..+",
"..+",
"..+",
"..+",
"..+",
"..+",
"..+",
"..+",
"..+",
"..+",
"..+",
"..+",
"..+"};
