/* XPM */
static char * top_left_active_xpm[] = {
"3 17 3 1",
" 	c None",
".	c #CB0000",
"+	c #000000",
"...",
".++",
".++",
".++",
".++",
".++",
".++",
".++",
".++",
".++",
".++",
".++",
".++",
".++",
".++",
".++",
".++"};
